<?xml version="1.0" encoding="UTF-8" standalone="no"?>
<svg width="810px" height="251px" viewBox="0 0 810 251" version="1.1" xmlns="http://www.w3.org/2000/svg" xmlns:xlink="http://www.w3.org/1999/xlink">
    <!-- Generator: Sketch 3.8.3 (29802) - http://www.bohemiancoding.com/sketch -->
    <title>Logo blanco</title>
    <desc>Created with Sketch.</desc>
    <defs></defs>
    <g id="Page-1" stroke="none" stroke-width="1" fill="none" fill-rule="evenodd">
        <g id="Logo-blanco" transform="translate(0.000000, 0.000000)" fill="#FFFFFF">
            <path d="M129.935547,0.294921875 L129.935547,154.975896 L253.597656,246.814453 L253.597656,93.3720862 L129.935547,0.294921875 Z M181.836,144.164 C184.521347,146.342678 187.991979,147.432 192.248,147.432 C196.504021,147.432 200.455982,146.874672 204.104,145.76 C207.752018,144.645328 210.715989,143.530672 212.996,142.416 C215.276011,141.301328 216.567998,140.744 216.872,140.744 C217.682671,140.744 218.088,141.453326 218.088,142.872 C218.088,144.392008 217.936002,146.545319 217.632,149.332 C217.327998,152.118681 217.074668,153.866663 216.872,154.576 C215.757328,158.325352 212.464027,161.035992 206.992,162.708 C201.519973,164.380008 195.997361,165.216 190.424,165.216 C178.365273,165.216 169.37203,162.277363 163.444,156.4 C157.51597,150.522637 154.552,142.314719 154.552,131.776 C154.552,115.258584 158.453294,103.04804 166.256,95.144 C174.058706,87.2399605 184.090605,83.288 196.352,83.288 C202.128029,83.288 207.093313,84.0479924 211.248,85.568 C215.402687,87.0880076 218.442657,89.0639878 220.368,91.496 C224.016018,95.954689 225.84,100.56531 225.84,105.328 C225.84,114.650713 222.5467,121.61731 215.96,126.228 C209.3733,130.83869 201.773376,133.144 193.16,133.144 C187.586639,133.144 182.317358,132.789337 177.352,132.08 C177.656002,137.957363 179.150653,141.985322 181.836,144.164 Z M194.832,101.072 C186.421291,101.072 180.949346,106.74661 178.416,118.096 L185.712,118.096 C192.197366,118.096 196.858652,117.10801 199.696,115.132 C202.533348,113.15599 203.952,110.85068 203.952,108.216 C203.952,103.45331 200.91203,101.072 194.832,101.072 Z" id="Combined-Shape"></path>
            <polygon id="Path-2" points="245.464844 247.269531 102.760742 200.896484 53.6992188 53.2431641 100.499023 69.4804688 114.324219 174.057617"></polygon>
            <polygon id="Path-3" points="244.928711 250.731445 92.186099 250.731445 0.658203125 124.003906 49.6295282 124.003906 94.6816406 221.027344"></polygon>
            <path d="M279.126,242.37 L279.126,103.14 C279.126,97.2466372 282.072637,94.3 287.966,94.3 L334.376,94.3 C351.614086,94.3 364.94762,98.5726239 374.377,107.118 C377.913018,110.506684 380.896488,115.258136 383.3275,121.3725 C385.758512,127.486864 386.974,134.595626 386.974,142.699 C386.974,150.802374 385.574347,157.911136 382.775,164.0255 C379.975653,170.139864 376.623853,174.854483 372.7195,178.1695 C368.815147,181.484517 364.358358,184.173323 359.349,186.236 C351.540294,189.47735 343.952704,191.098 336.586,191.098 L313.16,191.098 L313.16,242.37 C313.16,247.08469 308.740044,249.442 299.9,249.442 L292.386,249.442 C283.545956,249.442 279.126,247.08469 279.126,242.37 L279.126,242.37 Z M313.16,161.926 L332.829,161.926 C338.133027,161.926 342.663481,160.526347 346.4205,157.727 C350.177519,154.927653 352.056,149.918369 352.056,142.699 C352.056,135.479631 350.177519,130.433514 346.4205,127.5605 C342.663481,124.687486 338.133027,123.251 332.829,123.251 L313.16,123.251 L313.16,161.926 Z M444.434,224.911 L450.401,224.027 C452.316343,224.027 453.936993,226.200145 455.263,230.5465 C456.589007,234.892855 457.252,238.023657 457.252,239.939 C457.252,247.158369 450.180071,250.768 436.036,250.768 C414.525226,250.768 403.77,238.834119 403.77,214.966 L403.77,89.438 C403.77,84.7233098 408.189956,82.366 417.03,82.366 L423.218,82.366 C432.058044,82.366 436.478,84.7233098 436.478,89.438 L436.478,215.408 C436.478,221.743365 439.129973,224.911 444.434,224.911 L444.434,224.911 Z M464.766,218.502 C464.766,214.376646 465.13433,210.619684 465.871,207.231 C466.60767,203.842316 468.301987,200.195853 470.954,196.2915 C473.606013,192.387147 477.141978,189.182679 481.562,186.678 C492.022719,180.489969 507.56623,177.396 528.193,177.396 L528.193,170.103 C528.193,161.704958 522.447057,157.506 510.955,157.506 C502.851626,157.506 494.969372,159.273982 487.308,162.81 C484.655987,163.988673 483.109002,164.578 482.667,164.578 C480.456989,164.578 477.98918,162.294356 475.2635,157.727 C472.53782,153.159644 471.175,149.550013 471.175,146.898 C471.175,142.91998 475.263459,139.384015 483.4405,136.29 C491.617541,133.195985 501.599274,131.649 513.386,131.649 C545.062825,131.649 560.901,143.95121 560.901,168.556 L560.901,210.104 C560.901,219.238712 561.342996,226.899969 562.227,233.088 L563.553,242.149 C563.553,244.506345 560.56953,246.274327 554.6025,247.453 C548.63547,248.631673 544.178681,249.221 541.232,249.221 C538.285319,249.221 536.333171,248.926336 535.3755,248.337 C534.417829,247.747664 533.644336,246.753174 533.055,245.3535 C532.465664,243.953826 532.023668,242.848837 531.729,242.0385 C531.434332,241.228163 531.102835,239.791677 530.7345,237.729 C530.366165,235.666323 530.108334,234.414002 529.961,233.972 C527.308987,238.68669 522.741699,242.66465 516.259,245.906 C509.776301,249.14735 503.514697,250.768 497.474,250.768 C486.129277,250.768 477.841859,247.821363 472.6115,241.928 C467.381141,236.034637 464.766,228.226049 464.766,218.502 L464.766,218.502 Z M497.253,215.187 C497.253,218.133681 498.210657,220.490991 500.126,222.259 C502.041343,224.027009 504.914314,224.911 508.745,224.911 C512.575686,224.911 516.332648,223.585013 520.016,220.933 C523.699352,218.280987 526.424991,214.96602 528.193,210.988 L528.193,198.833 C507.56623,198.833 497.253,204.284279 497.253,215.187 L497.253,215.187 Z M589.631,242.37 L589.631,172.313 C589.631,161.262945 589.189004,153.528022 588.305,149.108 C587.420996,144.687978 586.979,142.036004 586.979,141.152 C586.979,138.794655 589.96247,137.026673 595.9295,135.848 C601.89653,134.669327 606.353319,134.08 609.3,134.08 C612.246681,134.08 614.198829,134.374664 615.1565,134.964 C616.114171,135.553336 616.887664,136.47416 617.477,137.7265 C618.066336,138.97884 618.508332,140.010163 618.803,140.8205 C619.097668,141.630837 619.429165,142.993657 619.7975,144.909 C620.165835,146.824343 620.423666,148.002998 620.571,148.445 C624.107018,143.73031 628.821637,139.75235 634.715,136.511 C640.608363,133.26965 646.869967,131.649 653.5,131.649 C664.550055,131.649 672.726973,134.558804 678.031,140.3785 C683.335027,146.198196 685.987,155.222272 685.987,167.451 L685.987,242.37 C685.987,247.08469 681.567044,249.442 672.727,249.442 L666.539,249.442 C657.698956,249.442 653.279,247.08469 653.279,242.37 L653.279,172.313 C653.279,163.178288 648.859044,158.611 640.019,158.611 C632.652297,158.611 626.759022,162.883624 622.339,171.429 L622.339,242.37 C622.339,247.08469 617.919044,249.442 609.079,249.442 L602.891,249.442 C594.050956,249.442 589.631,247.08469 589.631,242.37 L589.631,242.37 Z M712.728,242.37 L712.728,172.313 C712.728,161.262945 712.286004,153.528022 711.402,149.108 C710.517996,144.687978 710.076,142.036004 710.076,141.152 C710.076,138.794655 713.05947,137.026673 719.0265,135.848 C724.99353,134.669327 729.450319,134.08 732.397,134.08 C735.343681,134.08 737.295829,134.374664 738.2535,134.964 C739.211171,135.553336 739.984664,136.47416 740.574,137.7265 C741.163336,138.97884 741.605332,140.010163 741.9,140.8205 C742.194668,141.630837 742.526165,142.993657 742.8945,144.909 C743.262835,146.824343 743.520666,148.002998 743.668,148.445 C747.204018,143.73031 751.918637,139.75235 757.812,136.511 C763.705363,133.26965 769.966967,131.649 776.597,131.649 C787.647055,131.649 795.823973,134.558804 801.128,140.3785 C806.432027,146.198196 809.084,155.222272 809.084,167.451 L809.084,242.37 C809.084,247.08469 804.664044,249.442 795.824,249.442 L789.636,249.442 C780.795956,249.442 776.376,247.08469 776.376,242.37 L776.376,172.313 C776.376,163.178288 771.956044,158.611 763.116,158.611 C755.749297,158.611 749.856022,162.883624 745.436,171.429 L745.436,242.37 C745.436,247.08469 741.016044,249.442 732.176,249.442 L725.988,249.442 C717.147956,249.442 712.728,247.08469 712.728,242.37 L712.728,242.37 Z" id="Plann"></path>
        </g>
    </g>
</svg>