<?xml version="1.0" encoding="UTF-8" standalone="no"?>
<svg width="254px" height="251px" viewBox="0 0 254 251" version="1.1" xmlns="http://www.w3.org/2000/svg" xmlns:xlink="http://www.w3.org/1999/xlink">
    <!-- Generator: Sketch 3.8.3 (29802) - http://www.bohemiancoding.com/sketch -->
    <title>Group</title>
    <desc>Created with Sketch.</desc>
    <defs></defs>
    <g id="Page-1" stroke="none" stroke-width="1" fill="none" fill-rule="evenodd">
        <g id="Group">
            <ellipse id="Oval-1" fill="#22CD00" cx="191" cy="124" rx="42" ry="45"></ellipse>
            <path d="M130,0 L130,154.680974 L253.662109,246.519531 L253.662109,93.0771643 L130,0 Z M181.900453,143.869078 C184.5858,146.047756 188.056432,147.137078 192.312453,147.137078 C196.568474,147.137078 200.520435,146.57975 204.168453,145.465078 C207.816471,144.350406 210.780442,143.23575 213.060453,142.121078 C215.340465,141.006406 216.632452,140.449078 216.936453,140.449078 C217.747124,140.449078 218.152453,141.158404 218.152453,142.577078 C218.152453,144.097086 218.000455,146.250398 217.696453,149.037078 C217.392452,151.823759 217.139121,153.571741 216.936453,154.281078 C215.821781,158.03043 212.52848,160.74107 207.056453,162.413078 C201.584426,164.085086 196.061814,164.921078 190.488453,164.921078 C178.429726,164.921078 169.436483,161.982441 163.508453,156.105078 C157.580423,150.227715 154.616453,142.019797 154.616453,131.481078 C154.616453,114.963662 158.517747,102.753118 166.320453,94.8490781 C174.123159,86.9450386 184.155058,82.9930781 196.416453,82.9930781 C202.192482,82.9930781 207.157766,83.7530705 211.312453,85.2730781 C215.467141,86.7930857 218.50711,88.769066 220.432453,91.2010781 C224.080471,95.6597671 225.904453,100.270388 225.904453,105.033078 C225.904453,114.355791 222.611153,121.322388 216.024453,125.933078 C209.437754,130.543768 201.83783,132.849078 193.224453,132.849078 C187.651092,132.849078 182.381811,132.494415 177.416453,131.785078 C177.720455,137.662441 179.215106,141.690401 181.900453,143.869078 Z M194.896453,100.777078 C186.485744,100.777078 181.013799,106.451688 178.480453,117.801078 L185.776453,117.801078 C192.261819,117.801078 196.923106,116.813088 199.760453,114.837078 C202.597801,112.861068 204.016453,110.555758 204.016453,107.921078 C204.016453,103.158388 200.976484,100.777078 194.896453,100.777078 Z" id="Combined-Shape" fill="#FFFFFF"></path>
            <polygon id="Path-2" fill="#FFFFFF" points="244.765625 247.026367 102.061523 200.65332 53 53 99.7998047 69.2373047 113.625 173.814453"></polygon>
            <polygon id="Path-3" fill="#FFFFFF" points="244.270508 250.727539 91.5278959 250.727539 1.42108547e-14 124 48.971325 124 94.0234375 221.023438"></polygon>
        </g>
    </g>
</svg>